<svg width="30" height="25" viewBox="0 0 30 25" fill="none" xmlns="http://www.w3.org/2000/svg">
<path d="M29 22.9979H27V11.4416C27 11.1648 26.9426 10.891 26.8314 10.6376C26.7201 10.3841 26.5575 10.1565 26.3538 9.96912L16.3538 0.534124C16.3489 0.529859 16.3443 0.525265 16.34 0.520374C15.9718 0.185541 15.492 0 14.9944 0C14.4967 0 14.0169 0.185541 13.6488 0.520374L13.635 0.534124L3.64625 9.96912C3.4425 10.1565 3.27985 10.3841 3.16861 10.6376C3.05737 10.891 2.99996 11.1648 3 11.4416V22.9979H1C0.734784 22.9979 0.48043 23.1032 0.292893 23.2908C0.105357 23.4783 0 23.7327 0 23.9979C0 24.2631 0.105357 24.5174 0.292893 24.705C0.48043 24.8925 0.734784 24.9979 1 24.9979H29C29.2652 24.9979 29.5196 24.8925 29.7071 24.705C29.8946 24.5174 30 24.2631 30 23.9979C30 23.7327 29.8946 23.4783 29.7071 23.2908C29.5196 23.1032 29.2652 22.9979 29 22.9979ZM5 11.4416L5.01375 11.4291L15 1.99787L24.9875 11.4266L25.0012 11.4391V22.9979H19V16.9979C19 16.4674 18.7893 15.9587 18.4142 15.5837C18.0391 15.2086 17.5304 14.9979 17 14.9979H13C12.4696 14.9979 11.9609 15.2086 11.5858 15.5837C11.2107 15.9587 11 16.4674 11 16.9979V22.9979H5V11.4416ZM17 22.9979H13V16.9979H17V22.9979Z" fill="#333333"/>
</svg>
