<svg width="32" height="32" viewBox="0 0 32 32" fill="none" xmlns="http://www.w3.org/2000/svg">
<path d="M13.583 27.0417C13.583 27.2958 13.4821 27.5396 13.3023 27.7193C13.1226 27.899 12.8789 28 12.6247 28H5.9166C5.40829 28 4.92079 27.7981 4.56136 27.4386C4.20193 27.0792 4 26.5917 4 26.0833V6.91667C4 6.40833 4.20193 5.92082 4.56136 5.56138C4.92079 5.20193 5.40829 5 5.9166 5H12.6247C12.8789 5 13.1226 5.10097 13.3023 5.28069C13.4821 5.46041 13.583 5.70417 13.583 5.95833C13.583 6.2125 13.4821 6.45625 13.3023 6.63598C13.1226 6.8157 12.8789 6.91667 12.6247 6.91667H5.9166V26.0833H12.6247C12.8789 26.0833 13.1226 26.1843 13.3023 26.364C13.4821 26.5437 13.583 26.7875 13.583 27.0417ZM26.7189 15.822L21.9274 11.0303C21.7476 10.8505 21.5037 10.7495 21.2494 10.7495C20.9951 10.7495 20.7513 10.8505 20.5714 11.0303C20.3916 11.2101 20.2906 11.454 20.2906 11.7083C20.2906 11.9626 20.3916 12.2065 20.5714 12.3864L23.7278 15.5417H12.6247C12.3706 15.5417 12.1268 15.6426 11.9471 15.8224C11.7674 16.0021 11.6664 16.2458 11.6664 16.5C11.6664 16.7542 11.7674 16.9979 11.9471 17.1776C12.1268 17.3574 12.3706 17.4583 12.6247 17.4583H23.7278L20.5714 20.6136C20.3916 20.7935 20.2906 21.0374 20.2906 21.2917C20.2906 21.546 20.3916 21.7899 20.5714 21.9697C20.7513 22.1495 20.9951 22.2505 21.2494 22.2505C21.5037 22.2505 21.7476 22.1495 21.9274 21.9697L26.7189 17.178C26.808 17.089 26.8787 16.9833 26.927 16.867C26.9752 16.7506 27 16.6259 27 16.5C27 16.3741 26.9752 16.2494 26.927 16.133C26.8787 16.0167 26.808 15.911 26.7189 15.822Z" fill="#333333"/>
</svg>
