<svg width="36" height="36" viewBox="0 0 36 36" fill="none" xmlns="http://www.w3.org/2000/svg">
<path d="M32.4731 29.8125C30.3314 26.1099 27.031 23.4549 23.1792 22.1963C25.0845 21.0621 26.5647 19.3338 27.3927 17.2769C28.2206 15.22 28.3505 12.9482 27.7623 10.8104C27.1741 8.67251 25.9004 6.78685 24.1369 5.44294C22.3733 4.09903 20.2173 3.37119 18 3.37119C15.7827 3.37119 13.6268 4.09903 11.8632 5.44294C10.0996 6.78685 8.82591 8.67251 8.23774 10.8104C7.64957 12.9482 7.77943 15.22 8.60737 17.2769C9.43531 19.3338 10.9156 21.0621 12.8208 22.1963C8.96908 23.4535 5.66861 26.1085 3.52689 29.8125C3.44835 29.9406 3.39625 30.0831 3.37368 30.2316C3.3511 30.3801 3.3585 30.5317 3.39544 30.6773C3.43238 30.8229 3.49811 30.9596 3.58875 31.0795C3.6794 31.1993 3.79312 31.2997 3.92321 31.3748C4.05329 31.45 4.19711 31.4983 4.34618 31.517C4.49525 31.5356 4.64654 31.5242 4.79114 31.4835C4.93573 31.4427 5.0707 31.3734 5.18808 31.2796C5.30545 31.1859 5.40286 31.0695 5.47455 30.9375C8.12392 26.3588 12.8067 23.625 18 23.625C23.1933 23.625 27.8761 26.3588 30.5255 30.9375C30.5972 31.0695 30.6946 31.1859 30.812 31.2796C30.9293 31.3734 31.0643 31.4427 31.2089 31.4835C31.3535 31.5242 31.5048 31.5356 31.6538 31.517C31.8029 31.4983 31.9467 31.45 32.0768 31.3748C32.2069 31.2997 32.3206 31.1993 32.4113 31.0795C32.5019 30.9596 32.5676 30.8229 32.6046 30.6773C32.6415 30.5317 32.6489 30.3801 32.6264 30.2316C32.6038 30.0831 32.5517 29.9406 32.4731 29.8125ZM10.125 13.5C10.125 11.9425 10.5869 10.4199 11.4522 9.1249C12.3175 7.82986 13.5474 6.8205 14.9864 6.22446C16.4254 5.62842 18.0088 5.47247 19.5364 5.77633C21.064 6.08019 22.4671 6.83021 23.5685 7.93155C24.6698 9.03288 25.4198 10.4361 25.7237 11.9637C26.0276 13.4913 25.8716 15.0747 25.2756 16.5136C24.6795 17.9526 23.6702 19.1825 22.3751 20.0478C21.0801 20.9132 19.5575 21.375 18 21.375C15.9121 21.3728 13.9104 20.5424 12.434 19.066C10.9577 17.5896 10.1272 15.5879 10.125 13.5Z" fill="black"/>
</svg>
